<svg width="79" height="28" viewBox="0 0 79 28" fill="none" xmlns="http://www.w3.org/2000/svg">
<g clip-path="url(#clip0_1575_60385)">
<g opacity="0.6">
<path opacity="0.6" d="M8.42496 20.4699C8.10236 20.3853 7.79004 20.2664 7.4935 20.1153C7.07363 19.9017 6.69033 19.6246 6.35758 19.2939C6.33486 19.2939 6.31593 19.2529 6.297 19.2342C6.16171 19.0886 6.03527 18.9353 5.91836 18.775L5.74418 18.5174C5.64037 18.3514 5.5468 18.1793 5.46399 18.0022L5.32389 17.655L3.90777 14.1867L2.30612 10.263C2.52004 10.1767 2.74897 10.1323 2.9801 10.1323C3.34186 10.1315 3.69552 10.2379 3.99526 10.4376C4.29501 10.6373 4.52703 10.9211 4.66127 11.2523L5.71767 13.8395L6.99369 16.9643L7.14894 17.3377L7.2701 17.6326L8.42496 20.4699Z" fill="#0F197D"/>
</g>
<g opacity="0.4">
<path opacity="0.4" d="M6.30835 19.2343L5.72146 18.6295L0.602234 13.373C0.951001 13.0523 1.41361 12.8797 1.89031 12.8922C2.36701 12.9048 2.8196 13.1016 3.15049 13.4402L3.90777 14.1869L5.32388 17.6551L5.46398 18.0023C5.5468 18.1795 5.64036 18.3515 5.74417 18.5175L5.91835 18.7751C6.03894 18.9357 6.16917 19.0891 6.30835 19.2343V19.2343Z" fill="#0F197D"/>
</g>
<path d="M9.58739 11.6926C8.60806 11.6907 7.65485 12.004 6.87254 12.5849V9.91183C6.87255 9.6759 6.82512 9.44231 6.73298 9.22458C6.64084 9.00684 6.50583 8.80928 6.33575 8.64333C6.16568 8.47737 5.96391 8.34631 5.74214 8.25774C5.52036 8.16916 5.28297 8.12483 5.0437 8.12729V16.1428C5.04477 16.6518 5.13442 17.1569 5.30875 17.6361C5.34888 17.7543 5.39565 17.8702 5.44885 17.9833C5.53166 18.1604 5.62523 18.3325 5.72904 18.4985L5.90322 18.7561C6.02014 18.9164 6.14657 19.0697 6.28186 19.2153C6.28186 19.2153 6.31972 19.2564 6.34244 19.275C6.67519 19.6057 7.05849 19.8828 7.47836 20.0964C7.7749 20.2475 8.08722 20.3664 8.40982 20.451C8.78905 20.5505 9.17983 20.6007 9.57224 20.6004C9.75579 20.6006 9.93916 20.5893 10.1213 20.5668C11.2092 20.3665 12.1856 19.7816 12.8671 18.9219C13.5487 18.0623 13.8886 16.9868 13.8231 15.8976C13.7576 14.8083 13.2911 13.7801 12.5112 13.0058C11.7313 12.2316 10.6917 11.7647 9.58739 11.6926V11.6926ZM9.58739 18.8382C8.90722 18.8382 8.25186 18.5863 7.75098 18.1326V18.1326C7.6781 18.0676 7.60979 17.9977 7.54652 17.9236L7.46322 17.8228C7.38441 17.723 7.31231 17.6182 7.24739 17.5092C7.22089 17.4606 7.19059 17.4121 7.16788 17.3636C7.10583 17.2435 7.05391 17.1187 7.01263 16.9902C6.92675 16.7285 6.8833 16.4551 6.8839 16.1801V16.0532C6.90472 15.5273 7.08206 15.0191 7.39383 14.592C7.70559 14.1648 8.13798 13.8376 8.63708 13.6511C9.13618 13.4647 9.67992 13.4271 10.2005 13.5433C10.7211 13.6594 11.1954 13.9241 11.5645 14.3043C11.9335 14.6845 12.1809 15.1634 12.2758 15.6812C12.3707 16.1991 12.3089 16.7331 12.098 17.2165C11.8872 17.7 11.5367 18.1116 11.0903 18.3999C10.6438 18.6883 10.1211 18.8408 9.58739 18.8382V18.8382Z" fill="#0F197D"/>
<path d="M50.3064 16.113C50.299 15.105 49.947 14.1289 49.3073 13.3426C48.6677 12.5562 47.7778 12.0056 46.7815 11.7796C45.7852 11.5536 44.7407 11.6655 43.8169 12.0972C42.893 12.5289 42.1439 13.2552 41.6904 14.1586C41.237 15.0621 41.1059 16.0899 41.3182 17.0759C41.5305 18.0619 42.0739 18.9486 42.8605 19.5924C43.647 20.2363 44.6309 20.5998 45.6529 20.6242C46.6749 20.6486 47.6755 20.3324 48.4927 19.7268V20.6191H50.3064V16.113ZM45.7816 18.8383C45.2471 18.8401 44.7239 18.6868 44.2772 18.3974C43.8305 18.108 43.4801 17.6954 43.2697 17.2109C43.0592 16.7265 42.9981 16.1917 43.0938 15.6732C43.1895 15.1547 43.438 14.6755 43.8081 14.2953C44.1782 13.9151 44.6536 13.6507 45.1751 13.5351C45.6966 13.4195 46.241 13.4579 46.7406 13.6453C47.2401 13.8328 47.6726 14.1611 47.9842 14.5892C48.2958 15.0174 48.4726 15.5266 48.4927 16.0532V16.2922C48.4578 16.9782 48.157 17.6249 47.6525 18.0987C47.1481 18.5725 46.4783 18.8372 45.7816 18.8383V18.8383Z" fill="#0F197D"/>
<path d="M73.8427 13.4735C74.3815 13.4727 74.9083 13.6296 75.3566 13.9243C75.8049 14.219 76.1544 14.6381 76.361 15.1288C76.5675 15.6194 76.6217 16.1594 76.5168 16.6805C76.4119 17.2015 76.1525 17.6802 75.7715 18.0558C75.3906 18.4314 74.9051 18.6871 74.3767 18.7906C73.8482 18.8941 73.3005 18.8406 72.8029 18.637C72.3053 18.4333 71.8802 18.0887 71.5813 17.6467C71.2824 17.2047 71.1233 16.6852 71.1241 16.154C71.1261 15.4437 71.4131 14.763 71.9225 14.2608C72.432 13.7585 73.1223 13.4754 73.8427 13.4735ZM73.8427 11.6927C72.944 11.6927 72.0656 11.9554 71.3184 12.4477C70.5712 12.94 69.9888 13.6396 69.6449 14.4582C69.301 15.2769 69.211 16.1776 69.3863 17.0467C69.5616 17.9157 69.9944 18.714 70.6298 19.3405C71.2653 19.967 72.0749 20.3937 72.9563 20.5666C73.8377 20.7394 74.7512 20.6507 75.5815 20.3116C76.4117 19.9726 77.1214 19.3984 77.6206 18.6616C78.1199 17.9249 78.3864 17.0587 78.3864 16.1727C78.3889 15.5837 78.2731 15 78.0456 14.4553C77.8182 13.9107 77.4836 13.4158 77.0612 12.9993C76.6387 12.5828 76.1369 12.2529 75.5845 12.0287C75.0321 11.8044 74.4401 11.6902 73.8427 11.6927V11.6927Z" fill="#0F197D"/>
<path d="M23.5971 17.0501H23.9757C24.2106 15.9261 23.999 14.7561 23.3847 13.7814C22.7704 12.8067 21.8001 12.1016 20.674 11.8115C19.5479 11.5214 18.3518 11.6685 17.3324 12.2224C16.3131 12.7763 15.5482 13.6948 15.1955 14.7884C14.8428 15.882 14.9291 17.0674 15.4368 18.1001C15.9445 19.1328 16.8347 19.934 17.9239 20.3385C19.0131 20.743 20.2182 20.72 21.2907 20.2741C22.3632 19.8283 23.2213 18.9936 23.688 17.9423H21.5676C21.253 18.2901 20.852 18.551 20.404 18.6994C19.956 18.8478 19.4766 18.8784 19.0129 18.7883C18.5492 18.6983 18.1174 18.4906 17.76 18.1857C17.4025 17.8809 17.1319 17.4895 16.9747 17.0501H23.5971ZM19.5456 13.4735C20.1079 13.4741 20.6562 13.6464 21.1152 13.9666C21.5742 14.2868 21.9213 14.7392 22.109 15.2618H16.9822C17.1699 14.7392 17.5171 14.2868 17.9761 13.9666C18.4351 13.6464 18.9834 13.4741 19.5456 13.4735V13.4735Z" fill="#0F197D"/>
<path d="M58.4586 8.12744H56.6449V9.90824H58.4586V8.12744Z" fill="#0F197D"/>
<path d="M58.4586 11.6965H56.6449V20.6192H58.4586V11.6965Z" fill="#0F197D"/>
<path d="M55.7361 11.6926C54.5343 11.6976 53.3835 12.1717 52.5355 13.0114C51.6874 13.851 51.2113 14.9877 51.2113 16.1726V20.6153H53.0212V16.154C53.0222 15.4433 53.309 14.7621 53.8186 14.2596C54.3282 13.7571 55.0192 13.4744 55.7399 13.4734V13.4734V11.6926H55.7361Z" fill="#0F197D"/>
<path d="M63.8882 11.6926C62.6865 11.6976 61.5356 12.1717 60.6876 13.0114C59.8396 13.851 59.3635 14.9877 59.3635 16.1726V20.6153H61.1734V16.154C61.1734 15.443 61.4598 14.7612 61.9697 14.2585C62.4795 13.7558 63.171 13.4734 63.892 13.4734C64.6131 13.4734 65.3045 13.7558 65.8144 14.2585C66.3242 14.7612 66.6107 15.443 66.6107 16.154V20.6153H68.4206V16.154C68.4156 14.971 67.9362 13.8379 67.0871 13.0021C66.238 12.1663 65.0881 11.6956 63.8882 11.6926V11.6926Z" fill="#0F197D"/>
<path d="M29.4963 11.6928C28.5184 11.6922 27.5668 12.0054 26.7852 12.585V8.12744H24.9753V16.1429V20.6229H26.7815V16.1429V16.0533C26.8184 15.3572 27.1288 14.7027 27.647 14.2285C28.1651 13.7544 28.8502 13.4978 29.557 13.5134C30.2638 13.5289 30.9366 13.8153 31.4328 14.3118C31.929 14.8082 32.2096 15.4758 32.215 16.1728V20.6154H34.0249V16.1541C34.0199 14.9718 33.541 13.8393 32.6927 13.0036C31.8444 12.1679 30.6955 11.6967 29.4963 11.6928V11.6928Z" fill="#0F197D"/>
<path d="M39.4546 18.8383C38.7339 18.8373 38.0429 18.5546 37.5333 18.0521C37.0237 17.5496 36.7369 16.8684 36.7359 16.1578V13.4772H40.3482V11.6964H36.7359V8.1311H34.9298V11.6964V13.4772V16.1578C34.9348 17.3395 35.4131 18.4714 36.2606 19.307C37.1081 20.1426 38.2561 20.6142 39.4546 20.6191H40.3633V18.8383H39.4546Z" fill="#0F197D"/>
</g>
<defs>
<clipPath id="clip0_1575_60385">
<rect width="78" height="28" fill="white" transform="translate(0.5)"/>
</clipPath>
</defs>
</svg>
